<?xml version="1.0" encoding="UTF-8" standalone="no"?>
<!DOCTYPE svg PUBLIC "-//W3C//DTD SVG 1.1//EN"
 "http://www.w3.org/Graphics/SVG/1.1/DTD/svg11.dtd">
<!-- Generated by graphviz version 13.0.1 (20250615.1724)
 -->
<!-- Title: G Pages: 1 -->
<svg width="638pt" height="98pt"
 viewBox="0.00 0.00 638.00 98.00" xmlns="http://www.w3.org/2000/svg" xmlns:xlink="http://www.w3.org/1999/xlink">
<g id="graph0" class="graph" transform="scale(1 1) rotate(0) translate(4 94)">
<title>G</title>
<polygon fill="white" stroke="none" points="-4,4 -4,-94 634,-94 634,4 -4,4"/>
<!-- aws_default_vpc.default -->
<g id="node1" class="node">
<title>aws_default_vpc.default</title>
<polygon fill="none" stroke="black" points="160.75,-36 0,-36 0,0 160.75,0 160.75,-36"/>
<text xml:space="preserve" text-anchor="middle" x="80.38" y="-12.2" font-family="sans-serif" font-size="14.00">aws_default_vpc.default</text>
</g>
<!-- aws_instance.terraform&#45;ec2 -->
<g id="node2" class="node">
<title>aws_instance.terraform&#45;ec2</title>
<polygon fill="none" stroke="black" points="630,-63 446.75,-63 446.75,-27 630,-27 630,-63"/>
<text xml:space="preserve" text-anchor="middle" x="538.38" y="-39.2" font-family="sans-serif" font-size="14.00">aws_instance.terraform&#45;ec2</text>
</g>
<!-- aws_key_pair.terraform&#45;key -->
<g id="node3" class="node">
<title>aws_key_pair.terraform&#45;key</title>
<polygon fill="none" stroke="black" points="395.38,-90 212.12,-90 212.12,-54 395.38,-54 395.38,-90"/>
<text xml:space="preserve" text-anchor="middle" x="303.75" y="-66.2" font-family="sans-serif" font-size="14.00">aws_key_pair.terraform&#45;key</text>
</g>
<!-- aws_instance.terraform&#45;ec2&#45;&gt;aws_key_pair.terraform&#45;key -->
<g id="edge1" class="edge">
<title>aws_instance.terraform&#45;ec2&#45;&gt;aws_key_pair.terraform&#45;key</title>
<path fill="none" stroke="black" d="M446.44,-55.55C433.39,-57.07 419.91,-58.63 406.67,-60.17"/>
<polygon fill="black" stroke="black" points="406.66,-56.65 397.13,-61.28 407.47,-63.6 406.66,-56.65"/>
</g>
<!-- aws_security_group.terraform&#45;sg -->
<g id="node4" class="node">
<title>aws_security_group.terraform&#45;sg</title>
<polygon fill="none" stroke="black" points="410.75,-36 196.75,-36 196.75,0 410.75,0 410.75,-36"/>
<text xml:space="preserve" text-anchor="middle" x="303.75" y="-12.2" font-family="sans-serif" font-size="14.00">aws_security_group.terraform&#45;sg</text>
</g>
<!-- aws_instance.terraform&#45;ec2&#45;&gt;aws_security_group.terraform&#45;sg -->
<g id="edge2" class="edge">
<title>aws_instance.terraform&#45;ec2&#45;&gt;aws_security_group.terraform&#45;sg</title>
<path fill="none" stroke="black" d="M446.44,-34.45C438.55,-33.53 430.51,-32.6 422.46,-31.66"/>
<polygon fill="black" stroke="black" points="422.92,-28.19 412.58,-30.52 422.11,-35.15 422.92,-28.19"/>
</g>
<!-- aws_security_group.terraform&#45;sg&#45;&gt;aws_default_vpc.default -->
<g id="edge3" class="edge">
<title>aws_security_group.terraform&#45;sg&#45;&gt;aws_default_vpc.default</title>
<path fill="none" stroke="black" d="M196.28,-18C188.31,-18 180.32,-18 172.47,-18"/>
<polygon fill="black" stroke="black" points="172.59,-14.5 162.59,-18 172.59,-21.5 172.59,-14.5"/>
</g>
</g>
</svg>
